<?xml version="1.0" encoding="UTF-8"?>
<!DOCTYPE svg PUBLIC "-//W3C//DTD SVG 1.1//EN" "http://www.w3.org/Graphics/SVG/1.1/DTD/svg11.dtd">
<svg xmlns="http://www.w3.org/2000/svg" version="1.1" width="500px" height="500px" style="shape-rendering:geometricPrecision; text-rendering:geometricPrecision; image-rendering:optimizeQuality; fill-rule:evenodd; clip-rule:evenodd" xmlns:xlink="http://www.w3.org/1999/xlink">
<g><path style="opacity:1" fill="#3c3c3c" d="M -0.5,-0.5 C 166.167,-0.5 332.833,-0.5 499.5,-0.5C 499.5,166.167 499.5,332.833 499.5,499.5C 332.833,499.5 166.167,499.5 -0.5,499.5C -0.5,332.833 -0.5,166.167 -0.5,-0.5 Z"/></g>
<g><path style="opacity:1" fill="#fce31e" d="M 133.5,24.5 C 170.167,24.5 206.833,24.5 243.5,24.5C 243.5,28.5 243.5,32.5 243.5,36.5C 174.5,36.5 105.5,36.5 36.5,36.5C 36.5,105.5 36.5,174.5 36.5,243.5C 32.8333,243.5 29.1667,243.5 25.5,243.5C 25.5,170.833 25.5,98.1667 25.5,25.5C 61.6705,25.8318 97.6705,25.4984 133.5,24.5 Z"/></g>
<g><path style="opacity:1" fill="#fcfcfc" d="M 190.5,73.5 C 190.5,112.5 190.5,151.5 190.5,190.5C 151.5,190.5 112.5,190.5 73.5,190.5C 73.5,151.5 73.5,112.5 73.5,73.5C 112.5,73.5 151.5,73.5 190.5,73.5 Z"/></g>
<g><path style="opacity:1" fill="#fcfcfc" d="M 308.5,190.5 C 308.5,151.5 308.5,112.5 308.5,73.5C 347.5,73.5 386.5,73.5 425.5,73.5C 425.5,112.5 425.5,151.5 425.5,190.5C 386.5,190.5 347.5,190.5 308.5,190.5 Z"/></g>
<g><path style="opacity:1" fill="#9b9b9b" d="M 288.5,93.5 C 269.167,93.5 249.833,93.5 230.5,93.5C 230.5,99.8333 230.5,106.167 230.5,112.5C 229.509,106.021 229.176,99.3543 229.5,92.5C 249.34,92.1696 269.007,92.5029 288.5,93.5 Z"/></g>
<g><path style="opacity:1" fill="#3b3c3b" d="M 93.5,93.5 C 99.8333,93.5 106.167,93.5 112.5,93.5C 112.5,99.8333 112.5,106.167 112.5,112.5C 106.167,112.5 99.8333,112.5 93.5,112.5C 93.5,106.167 93.5,99.8333 93.5,93.5 Z"/></g>
<g><path style="opacity:1" fill="#7d7d7d" d="M 171.5,93.5 C 165.167,93.5 158.833,93.5 152.5,93.5C 152.5,106.167 152.5,118.833 152.5,131.5C 158.833,131.5 165.167,131.5 171.5,131.5C 165.021,132.491 158.354,132.824 151.5,132.5C 151.5,119.167 151.5,105.833 151.5,92.5C 158.354,92.176 165.021,92.5093 171.5,93.5 Z"/></g>
<g><path style="opacity:1" fill="#3d3d3d" d="M 171.5,93.5 C 171.5,106.167 171.5,118.833 171.5,131.5C 165.167,131.5 158.833,131.5 152.5,131.5C 152.5,118.833 152.5,106.167 152.5,93.5C 158.833,93.5 165.167,93.5 171.5,93.5 Z"/></g>
<g><path style="opacity:1" fill="#fcfcfc" d="M 288.5,93.5 C 288.5,119.5 288.5,145.5 288.5,171.5C 282.167,171.5 275.833,171.5 269.5,171.5C 269.5,158.5 269.5,145.5 269.5,132.5C 262.833,132.5 256.167,132.5 249.5,132.5C 249.5,125.833 249.5,119.167 249.5,112.5C 243.167,112.5 236.833,112.5 230.5,112.5C 230.5,106.167 230.5,99.8333 230.5,93.5C 249.833,93.5 269.167,93.5 288.5,93.5 Z"/></g>
<g><path style="opacity:1" fill="#777777" d="M 347.5,112.5 C 347.167,112.5 346.833,112.5 346.5,112.5C 346.5,106.167 346.5,99.8333 346.5,93.5C 340.5,93.5 334.5,93.5 328.5,93.5C 328.5,99.8333 328.5,106.167 328.5,112.5C 328.167,112.5 327.833,112.5 327.5,112.5C 327.5,105.833 327.5,99.1667 327.5,92.5C 334.167,92.5 340.833,92.5 347.5,92.5C 347.5,99.1667 347.5,105.833 347.5,112.5 Z"/></g>
<g><path style="opacity:1" fill="#3b3c3b" d="M 346.5,112.5 C 340.5,112.5 334.5,112.5 328.5,112.5C 328.5,106.167 328.5,99.8333 328.5,93.5C 334.5,93.5 340.5,93.5 346.5,93.5C 346.5,99.8333 346.5,106.167 346.5,112.5 Z"/></g>
<g><path style="opacity:1" fill="#3c3c3c" d="M 405.5,93.5 C 405.5,106.5 405.5,119.5 405.5,132.5C 399.167,132.5 392.833,132.5 386.5,132.5C 386.5,132.167 386.5,131.833 386.5,131.5C 386.5,125.167 386.5,118.833 386.5,112.5C 380.167,112.5 373.833,112.5 367.5,112.5C 367.5,106.167 367.5,99.8333 367.5,93.5C 380.167,93.5 392.833,93.5 405.5,93.5 Z"/></g>
<g><path style="opacity:1" fill="#d3d3d3" d="M 327.5,112.5 C 327.833,112.5 328.167,112.5 328.5,112.5C 334.5,112.5 340.5,112.5 346.5,112.5C 346.833,112.5 347.167,112.5 347.5,112.5C 347.5,119.167 347.5,125.833 347.5,132.5C 341.167,132.5 334.833,132.5 328.5,132.5C 328.167,132.5 327.833,132.5 327.5,132.5C 333.645,131.51 339.978,131.177 346.5,131.5C 346.5,125.5 346.5,119.5 346.5,113.5C 339.978,113.823 333.645,113.49 327.5,112.5 Z"/></g>
<g><path style="opacity:1" fill="#404040" d="M 347.5,112.5 C 353.833,112.5 360.167,112.5 366.5,112.5C 366.5,119.167 366.5,125.833 366.5,132.5C 360.167,132.5 353.833,132.5 347.5,132.5C 347.5,125.833 347.5,119.167 347.5,112.5 Z"/></g>
<g><path style="opacity:1" fill="#fbfbfb" d="M 367.5,112.5 C 373.833,112.5 380.167,112.5 386.5,112.5C 386.5,118.833 386.5,125.167 386.5,131.5C 380.167,131.5 373.833,131.5 367.5,131.5C 367.5,125.167 367.5,118.833 367.5,112.5 Z"/></g>
<g><path style="opacity:1" fill="#a6a6a6" d="M 405.5,93.5 C 392.833,93.5 380.167,93.5 367.5,93.5C 367.5,99.8333 367.5,106.167 367.5,112.5C 367.5,118.833 367.5,125.167 367.5,131.5C 373.833,131.5 380.167,131.5 386.5,131.5C 386.5,131.833 386.5,132.167 386.5,132.5C 380.167,132.5 373.833,132.5 367.5,132.5C 367.823,139.022 367.49,145.355 366.5,151.5C 366.5,145.167 366.5,138.833 366.5,132.5C 366.5,125.833 366.5,119.167 366.5,112.5C 366.5,105.833 366.5,99.1667 366.5,92.5C 379.677,92.1712 392.677,92.5045 405.5,93.5 Z"/></g>
<g><path style="opacity:1" fill="#3f3f3f" d="M 132.5,151.5 C 125.833,151.5 119.167,151.5 112.5,151.5C 112.5,145.167 112.5,138.833 112.5,132.5C 119.167,132.5 125.833,132.5 132.5,132.5C 132.5,138.833 132.5,145.167 132.5,151.5 Z"/></g>
<g><path style="opacity:1" fill="#fcfdfc" d="M 249.5,132.5 C 249.5,138.833 249.5,145.167 249.5,151.5C 243.167,151.5 236.833,151.5 230.5,151.5C 229.51,157.645 229.177,163.978 229.5,170.5C 223.167,170.5 216.833,170.5 210.5,170.5C 210.5,157.833 210.5,145.167 210.5,132.5C 223.5,132.5 236.5,132.5 249.5,132.5 Z"/></g>
<g><path style="opacity:1" fill="#3d3d3d" d="M 328.5,132.5 C 334.833,132.5 341.167,132.5 347.5,132.5C 347.5,138.833 347.5,145.167 347.5,151.5C 353.833,151.5 360.167,151.5 366.5,151.5C 367.49,145.355 367.823,139.022 367.5,132.5C 373.833,132.5 380.167,132.5 386.5,132.5C 386.5,138.833 386.5,145.167 386.5,151.5C 392.833,151.5 399.167,151.5 405.5,151.5C 405.5,157.833 405.5,164.167 405.5,170.5C 379.833,170.5 354.167,170.5 328.5,170.5C 328.5,157.833 328.5,145.167 328.5,132.5 Z"/></g>
<g><path style="opacity:1" fill="#fcfdfc" d="M 347.5,132.5 C 353.833,132.5 360.167,132.5 366.5,132.5C 366.5,138.833 366.5,145.167 366.5,151.5C 360.167,151.5 353.833,151.5 347.5,151.5C 347.5,145.167 347.5,138.833 347.5,132.5 Z"/></g>
<g><path style="opacity:1" fill="#d7c324" d="M 133.5,24.5 C 97.6705,25.4984 61.6705,25.8318 25.5,25.5C 25.5,98.1667 25.5,170.833 25.5,243.5C 24.5008,170.669 24.1674,97.6686 24.5,24.5C 60.8333,24.5 97.1667,24.5 133.5,24.5 Z"/></g>
<g><path style="opacity:1" fill="#686868" d="M 132.5,152.5 C 132.5,152.167 132.5,151.833 132.5,151.5C 145.5,151.5 158.5,151.5 171.5,151.5C 171.5,158.167 171.5,164.833 171.5,171.5C 158.5,171.5 145.5,171.5 132.5,171.5C 132.5,171.167 132.5,170.833 132.5,170.5C 145.167,170.5 157.833,170.5 170.5,170.5C 170.5,164.5 170.5,158.5 170.5,152.5C 157.833,152.5 145.167,152.5 132.5,152.5 Z"/></g>
<g><path style="opacity:1" fill="#404040" d="M 112.5,151.5 C 112.5,158.167 112.5,164.833 112.5,171.5C 106.167,171.5 99.8333,171.5 93.5,171.5C 93.5,164.833 93.5,158.167 93.5,151.5C 99.8333,151.5 106.167,151.5 112.5,151.5 Z"/></g>
<g><path style="opacity:1" fill="#d0d0d0" d="M 112.5,151.5 C 119.167,151.5 125.833,151.5 132.5,151.5C 132.5,151.833 132.5,152.167 132.5,152.5C 132.5,158.5 132.5,164.5 132.5,170.5C 132.5,170.833 132.5,171.167 132.5,171.5C 131.51,165.355 131.177,159.022 131.5,152.5C 125.5,152.5 119.5,152.5 113.5,152.5C 113.823,159.022 113.49,165.355 112.5,171.5C 112.5,164.833 112.5,158.167 112.5,151.5 Z"/></g>
<g><path style="opacity:1" fill="#3b3c3b" d="M 132.5,152.5 C 145.167,152.5 157.833,152.5 170.5,152.5C 170.5,158.5 170.5,164.5 170.5,170.5C 157.833,170.5 145.167,170.5 132.5,170.5C 132.5,164.5 132.5,158.5 132.5,152.5 Z"/></g>
<g><path style="opacity:1" fill="#bdbdbd" d="M 230.5,151.5 C 230.5,158.167 230.5,164.833 230.5,171.5C 223.646,171.824 216.979,171.491 210.5,170.5C 216.833,170.5 223.167,170.5 229.5,170.5C 229.177,163.978 229.51,157.645 230.5,151.5 Z"/></g>
<g><path style="opacity:1" fill="#747474" d="M 327.5,132.5 C 327.833,132.5 328.167,132.5 328.5,132.5C 328.5,145.167 328.5,157.833 328.5,170.5C 354.167,170.5 379.833,170.5 405.5,170.5C 405.5,164.167 405.5,157.833 405.5,151.5C 406.491,157.979 406.824,164.646 406.5,171.5C 380.167,171.5 353.833,171.5 327.5,171.5C 327.5,158.5 327.5,145.5 327.5,132.5 Z"/></g>
<g><path style="opacity:1" fill="#767676" d="M 190.5,73.5 C 191.499,112.33 191.832,151.33 191.5,190.5C 191.5,190.833 191.5,191.167 191.5,191.5C 191.167,191.5 190.833,191.5 190.5,191.5C 151.33,191.832 112.33,191.499 73.5,190.5C 112.5,190.5 151.5,190.5 190.5,190.5C 190.5,151.5 190.5,112.5 190.5,73.5 Z"/></g>
<g><path style="opacity:1" fill="#fbfbfb" d="M 191.5,191.5 C 230.167,191.5 268.833,191.5 307.5,191.5C 307.5,230.167 307.5,268.833 307.5,307.5C 268.833,307.5 230.167,307.5 191.5,307.5C 191.5,268.833 191.5,230.167 191.5,191.5 Z"/></g>
<g><path style="opacity:1" fill="#c9c9c9" d="M 191.5,191.5 C 191.5,191.167 191.5,190.833 191.5,190.5C 230.5,190.5 269.5,190.5 308.5,190.5C 308.5,229.833 308.5,269.167 308.5,308.5C 269.5,308.5 230.5,308.5 191.5,308.5C 191.5,308.167 191.5,307.833 191.5,307.5C 230.167,307.5 268.833,307.5 307.5,307.5C 307.5,268.833 307.5,230.167 307.5,191.5C 268.833,191.5 230.167,191.5 191.5,191.5 Z"/></g>
<g><path style="opacity:1" fill="#fafafa" d="M 132.5,249.5 C 125.833,249.5 119.167,249.5 112.5,249.5C 112.5,262.5 112.5,275.5 112.5,288.5C 106.167,288.5 99.8333,288.5 93.5,288.5C 93.5,269.167 93.5,249.833 93.5,230.5C 100.022,230.823 106.355,230.49 112.5,229.5C 112.5,223.167 112.5,216.833 112.5,210.5C 132.167,210.5 151.833,210.5 171.5,210.5C 171.5,217.167 171.5,223.833 171.5,230.5C 158.5,230.5 145.5,230.5 132.5,230.5C 132.5,236.833 132.5,243.167 132.5,249.5 Z"/></g>
<g><path style="opacity:1" fill="#3c3c3c" d="M 268.5,210.5 C 268.5,217.167 268.5,223.833 268.5,230.5C 275.167,230.5 281.833,230.5 288.5,230.5C 288.5,249.833 288.5,269.167 288.5,288.5C 269.167,288.5 249.833,288.5 230.5,288.5C 230.5,275.5 230.5,262.5 230.5,249.5C 236.833,249.5 243.167,249.5 249.5,249.5C 249.5,242.833 249.5,236.167 249.5,229.5C 236.5,229.5 223.5,229.5 210.5,229.5C 210.5,223.167 210.5,216.833 210.5,210.5C 229.833,210.5 249.167,210.5 268.5,210.5 Z"/></g>
<g><path style="opacity:1" fill="#fcfdfc" d="M 405.5,210.5 C 405.5,216.833 405.5,223.167 405.5,229.5C 386.167,229.5 366.833,229.5 347.5,229.5C 347.5,223.167 347.5,216.833 347.5,210.5C 366.833,210.5 386.167,210.5 405.5,210.5 Z"/></g>
<g><path style="opacity:1" fill="#949494" d="M 268.5,210.5 C 269.49,216.645 269.823,222.978 269.5,229.5C 276.022,229.177 282.355,229.51 288.5,230.5C 281.833,230.5 275.167,230.5 268.5,230.5C 268.5,223.833 268.5,217.167 268.5,210.5 Z"/></g>
<g><path style="opacity:1" fill="#a2a2a2" d="M 405.5,210.5 C 406.491,216.979 406.824,223.646 406.5,230.5C 386.833,230.5 367.167,230.5 347.5,230.5C 341.167,230.5 334.833,230.5 328.5,230.5C 328.5,236.833 328.5,243.167 328.5,249.5C 327.509,243.021 327.176,236.354 327.5,229.5C 334.167,229.5 340.833,229.5 347.5,229.5C 366.833,229.5 386.167,229.5 405.5,229.5C 405.5,223.167 405.5,216.833 405.5,210.5 Z"/></g>
<g><path style="opacity:1" fill="#818181" d="M 112.5,229.5 C 106.355,230.49 100.022,230.823 93.5,230.5C 93.5,249.833 93.5,269.167 93.5,288.5C 92.5029,269.007 92.1696,249.34 92.5,229.5C 99.1667,229.5 105.833,229.5 112.5,229.5 Z"/></g>
<g><path style="opacity:1" fill="#fbfbfb" d="M 347.5,230.5 C 347.5,236.833 347.5,243.167 347.5,249.5C 341.167,249.5 334.833,249.5 328.5,249.5C 328.5,243.167 328.5,236.833 328.5,230.5C 334.833,230.5 341.167,230.5 347.5,230.5 Z"/></g>
<g><path style="opacity:1" fill="#fcfdfc" d="M 132.5,249.5 C 138.833,249.5 145.167,249.5 151.5,249.5C 151.5,255.833 151.5,262.167 151.5,268.5C 145.167,268.5 138.833,268.5 132.5,268.5C 132.5,262.167 132.5,255.833 132.5,249.5 Z"/></g>
<g><path style="opacity:1" fill="#fcfcfc" d="M 249.5,249.5 C 255.833,249.5 262.167,249.5 268.5,249.5C 268.5,255.833 268.5,262.167 268.5,268.5C 262.167,268.5 255.833,268.5 249.5,268.5C 249.5,262.167 249.5,255.833 249.5,249.5 Z"/></g>
<g><path style="opacity:1" fill="#fcfcfc" d="M 386.5,268.5 C 392.645,269.49 398.978,269.823 405.5,269.5C 405.5,275.833 405.5,282.167 405.5,288.5C 379.833,288.5 354.167,288.5 328.5,288.5C 328.5,282.167 328.5,275.833 328.5,269.5C 341.344,269.829 354.011,269.495 366.5,268.5C 366.5,262.167 366.5,255.833 366.5,249.5C 373.167,249.5 379.833,249.5 386.5,249.5C 386.5,255.833 386.5,262.167 386.5,268.5 Z"/></g>
<g><path style="opacity:1" fill="#fce31e" d="M 473.5,255.5 C 473.5,328.167 473.5,400.833 473.5,473.5C 428.33,473.168 383.33,473.501 338.5,474.5C 310.833,474.5 283.167,474.5 255.5,474.5C 255.5,470.5 255.5,466.5 255.5,462.5C 324.5,462.5 393.5,462.5 462.5,462.5C 462.5,393.5 462.5,324.5 462.5,255.5C 466.167,255.5 469.833,255.5 473.5,255.5 Z"/></g>
<g><path style="opacity:1" fill="#999999" d="M 151.5,249.5 C 152.49,255.645 152.823,261.978 152.5,268.5C 159.022,268.177 165.355,268.51 171.5,269.5C 165.167,269.5 158.833,269.5 152.5,269.5C 152.5,275.833 152.5,282.167 152.5,288.5C 151.51,282.355 151.177,276.022 151.5,269.5C 144.978,269.823 138.645,269.49 132.5,268.5C 138.833,268.5 145.167,268.5 151.5,268.5C 151.5,262.167 151.5,255.833 151.5,249.5 Z"/></g>
<g><path style="opacity:1" fill="#a9a9a9" d="M 268.5,249.5 C 269.491,255.979 269.824,262.646 269.5,269.5C 262.646,269.824 255.979,269.491 249.5,268.5C 255.833,268.5 262.167,268.5 268.5,268.5C 268.5,262.167 268.5,255.833 268.5,249.5 Z"/></g>
<g><path style="opacity:1" fill="#a6a6a6" d="M 366.5,268.5 C 354.011,269.495 341.344,269.829 328.5,269.5C 328.5,275.833 328.5,282.167 328.5,288.5C 327.509,282.021 327.176,275.354 327.5,268.5C 340.5,268.5 353.5,268.5 366.5,268.5 Z"/></g>
<g><path style="opacity:1" fill="#fbfbfb" d="M 171.5,269.5 C 171.5,275.833 171.5,282.167 171.5,288.5C 165.167,288.5 158.833,288.5 152.5,288.5C 152.5,282.167 152.5,275.833 152.5,269.5C 158.833,269.5 165.167,269.5 171.5,269.5 Z"/></g>
<g><path style="opacity:1" fill="#989898" d="M 386.5,268.5 C 393.167,268.5 399.833,268.5 406.5,268.5C 406.824,275.354 406.491,282.021 405.5,288.5C 405.5,282.167 405.5,275.833 405.5,269.5C 398.978,269.823 392.645,269.49 386.5,268.5 Z"/></g>
<g><path style="opacity:1" fill="#fbfbfb" d="M 73.5,308.5 C 112.5,308.5 151.5,308.5 190.5,308.5C 190.5,347.5 190.5,386.5 190.5,425.5C 190.5,386.5 190.5,347.5 190.5,308.5C 151.5,308.5 112.5,308.5 73.5,308.5 Z"/></g>
<g><path style="opacity:1" fill="#8c8c8c" d="M 190.5,191.5 C 190.833,191.5 191.167,191.5 191.5,191.5C 191.5,230.167 191.5,268.833 191.5,307.5C 191.5,307.833 191.5,308.167 191.5,308.5C 191.832,347.67 191.499,386.67 190.5,425.5C 190.5,386.5 190.5,347.5 190.5,308.5C 151.5,308.5 112.5,308.5 73.5,308.5C 112.33,307.501 151.33,307.168 190.5,307.5C 190.5,268.833 190.5,230.167 190.5,191.5 Z"/></g>
<g><path style="opacity:1" fill="#fcfcfc" d="M 308.5,308.5 C 347.5,308.5 386.5,308.5 425.5,308.5C 425.5,347.5 425.5,386.5 425.5,425.5C 386.5,425.5 347.5,425.5 308.5,425.5C 308.5,386.5 308.5,347.5 308.5,308.5 Z"/></g>
<g><path style="opacity:1" fill="#c6c6c6" d="M 230.5,328.5 C 230.5,328.167 230.5,327.833 230.5,327.5C 243.5,327.5 256.5,327.5 269.5,327.5C 269.5,334.167 269.5,340.833 269.5,347.5C 268.51,341.355 268.177,335.022 268.5,328.5C 255.833,328.5 243.167,328.5 230.5,328.5 Z"/></g>
<g><path style="opacity:1" fill="#404040" d="M 93.5,327.5 C 99.8333,327.5 106.167,327.5 112.5,327.5C 112.5,334.167 112.5,340.833 112.5,347.5C 106.167,347.5 99.8333,347.5 93.5,347.5C 93.5,340.833 93.5,334.167 93.5,327.5 Z"/></g>
<g><path style="opacity:1" fill="#404040" d="M 151.5,347.5 C 145.167,347.5 138.833,347.5 132.5,347.5C 132.5,340.833 132.5,334.167 132.5,327.5C 138.833,327.5 145.167,327.5 151.5,327.5C 151.5,334.167 151.5,340.833 151.5,347.5 Z"/></g>
<g><path style="opacity:1" fill="#fcfcfc" d="M 230.5,328.5 C 243.167,328.5 255.833,328.5 268.5,328.5C 268.177,335.022 268.51,341.355 269.5,347.5C 275.833,347.5 282.167,347.5 288.5,347.5C 288.5,353.833 288.5,360.167 288.5,366.5C 282.167,366.5 275.833,366.5 269.5,366.5C 268.505,379.323 268.171,392.323 268.5,405.5C 262.167,405.5 255.833,405.5 249.5,405.5C 249.5,392.5 249.5,379.5 249.5,366.5C 243.167,366.5 236.833,366.5 230.5,366.5C 229.505,379.323 229.171,392.323 229.5,405.5C 223.167,405.5 216.833,405.5 210.5,405.5C 210.5,386.167 210.5,366.833 210.5,347.5C 217.167,347.5 223.833,347.5 230.5,347.5C 230.5,341.167 230.5,334.833 230.5,328.5 Z"/></g>
<g><path style="opacity:1" fill="#787878" d="M 347.5,366.5 C 346.505,354.011 346.171,341.344 346.5,328.5C 340.5,328.5 334.5,328.5 328.5,328.5C 328.5,354.167 328.5,379.833 328.5,405.5C 354.167,405.5 379.833,405.5 405.5,405.5C 379.672,406.498 353.672,406.831 327.5,406.5C 327.5,380.167 327.5,353.833 327.5,327.5C 334.167,327.5 340.833,327.5 347.5,327.5C 347.5,340.5 347.5,353.5 347.5,366.5 Z"/></g>
<g><path style="opacity:1" fill="#3c3c3c" d="M 347.5,366.5 C 366.833,366.5 386.167,366.5 405.5,366.5C 405.5,379.5 405.5,392.5 405.5,405.5C 379.833,405.5 354.167,405.5 328.5,405.5C 328.5,379.833 328.5,354.167 328.5,328.5C 334.5,328.5 340.5,328.5 346.5,328.5C 346.171,341.344 346.505,354.011 347.5,366.5 Z"/></g>
<g><path style="opacity:1" fill="#7a7a7a" d="M 230.5,327.5 C 230.5,327.833 230.5,328.167 230.5,328.5C 230.5,334.833 230.5,341.167 230.5,347.5C 223.833,347.5 217.167,347.5 210.5,347.5C 216.645,346.51 222.978,346.177 229.5,346.5C 229.177,339.978 229.51,333.645 230.5,327.5 Z"/></g>
<g><path style="opacity:1" fill="#3f3f3f" d="M 151.5,347.5 C 158.167,347.5 164.833,347.5 171.5,347.5C 171.5,353.833 171.5,360.167 171.5,366.5C 164.833,366.5 158.167,366.5 151.5,366.5C 151.5,360.167 151.5,353.833 151.5,347.5 Z"/></g>
<g><path style="opacity:1" fill="#d5c224" d="M 473.5,255.5 C 474.499,328.331 474.833,401.331 474.5,474.5C 429.167,474.5 383.833,474.5 338.5,474.5C 383.33,473.501 428.33,473.168 473.5,473.5C 473.5,400.833 473.5,328.167 473.5,255.5 Z"/></g>
<g><path style="opacity:1" fill="#6a6a6a" d="M 132.5,386.5 C 125.833,386.5 119.167,386.5 112.5,386.5C 112.5,379.833 112.5,373.167 112.5,366.5C 119.167,366.5 125.833,366.5 132.5,366.5C 132.5,373.167 132.5,379.833 132.5,386.5 Z"/></g>
<g><path style="opacity:1" fill="#3b3c3b" d="M 113.5,367.5 C 119.5,367.5 125.5,367.5 131.5,367.5C 131.5,373.5 131.5,379.5 131.5,385.5C 125.5,385.5 119.5,385.5 113.5,385.5C 113.5,379.5 113.5,373.5 113.5,367.5 Z"/></g>
<g><path style="opacity:1" fill="#9f9f9f" d="M 230.5,366.5 C 230.5,379.833 230.5,393.167 230.5,406.5C 223.646,406.824 216.979,406.491 210.5,405.5C 216.833,405.5 223.167,405.5 229.5,405.5C 229.171,392.323 229.505,379.323 230.5,366.5 Z"/></g>
<g><path style="opacity:1" fill="#aeaeae" d="M 269.5,366.5 C 269.5,379.833 269.5,393.167 269.5,406.5C 262.646,406.824 255.979,406.491 249.5,405.5C 255.833,405.5 262.167,405.5 268.5,405.5C 268.171,392.323 268.505,379.323 269.5,366.5 Z"/></g>
<g><path style="opacity:1" fill="#3b3c3b" d="M 112.5,386.5 C 112.5,392.833 112.5,399.167 112.5,405.5C 106.167,405.5 99.8333,405.5 93.5,405.5C 93.5,399.167 93.5,392.833 93.5,386.5C 99.8333,386.5 106.167,386.5 112.5,386.5 Z"/></g>
<g><path style="opacity:1" fill="#3b3c3b" d="M 132.5,386.5 C 138.833,386.5 145.167,386.5 151.5,386.5C 151.5,392.833 151.5,399.167 151.5,405.5C 145.167,405.5 138.833,405.5 132.5,405.5C 132.5,399.167 132.5,392.833 132.5,386.5 Z"/></g>
</svg>
